<?xml version="1.0" encoding="UTF-8" standalone="no"?>
<!-- Created with Inkscape (http://www.inkscape.org/) -->

<svg
   xmlns:osb="http://www.openswatchbook.org/uri/2009/osb"
   xmlns:dc="http://purl.org/dc/elements/1.1/"
   xmlns:cc="http://creativecommons.org/ns#"
   xmlns:rdf="http://www.w3.org/1999/02/22-rdf-syntax-ns#"
   xmlns:svg="http://www.w3.org/2000/svg"
   xmlns="http://www.w3.org/2000/svg"
   xmlns:sodipodi="http://sodipodi.sourceforge.net/DTD/sodipodi-0.dtd"
   xmlns:inkscape="http://www.inkscape.org/namespaces/inkscape"
   sodipodi:docname="ShufflerBoxv5.svg"
   width="594mm"
   height="841mm"
   viewBox="0 0 2104.7244 2979.9212"
   id="svg2"
   version="1.1"
   inkscape:version="0.92.2 (5c3e80d, 2017-08-06)">
  <sodipodi:namedview
     inkscape:current-layer="svg2"
     id="base"
     pagecolor="#ffffff"
     bordercolor="#666666"
     borderopacity="1.0"
     inkscape:pageopacity="0.0"
     inkscape:pageshadow="2"
     inkscape:zoom="0.70710678"
     inkscape:cx="1500.4796"
     inkscape:cy="2394.9443"
     inkscape:document-units="px"
     showgrid="false"
     inkscape:window-width="1600"
     inkscape:window-height="837"
     inkscape:window-x="-8"
     inkscape:window-y="-8"
     inkscape:window-maximized="1"
     showguides="true" />
  <defs
     id="defs4">
    <linearGradient
       id="linearGradient5334"
       osb:paint="solid">
      <stop
         style="stop-color:#000000;stop-opacity:1;"
         offset="0"
         id="stop5336" />
    </linearGradient>
    <linearGradient
       id="linearGradient5328"
       osb:paint="solid">
      <stop
         style="stop-color:#000000;stop-opacity:1;"
         offset="0"
         id="stop5330" />
    </linearGradient>
    <linearGradient
       osb:paint="solid"
       id="linearGradient17123">
      <stop
         id="stop17125"
         offset="0"
         style="stop-color:#000000;stop-opacity:1;" />
    </linearGradient>
    <linearGradient
       osb:paint="solid"
       id="linearGradient5289">
      <stop
         id="stop5291"
         offset="0"
         style="stop-color:#000000;stop-opacity:1;" />
    </linearGradient>
    <linearGradient
       osb:paint="solid"
       id="linearGradient4994">
      <stop
         id="stop4996"
         offset="0"
         style="stop-color:#000000;stop-opacity:1;" />
    </linearGradient>
    <linearGradient
       osb:paint="solid"
       id="linearGradient4947">
      <stop
         id="stop4949"
         offset="0"
         style="stop-color:#000000;stop-opacity:1;" />
    </linearGradient>
    <linearGradient
       osb:paint="solid"
       id="linearGradient4787">
      <stop
         id="stop4789"
         offset="0"
         style="stop-color:#000000;stop-opacity:1;" />
    </linearGradient>
  </defs>
  <metadata
     id="metadata7">
    <rdf:RDF>
      <cc:Work
         rdf:about="">
        <dc:format>image/svg+xml</dc:format>
        <dc:type
           rdf:resource="http://purl.org/dc/dcmitype/StillImage" />
        <dc:title />
      </cc:Work>
    </rdf:RDF>
  </metadata>
  <g
     transform="translate(0,1927.5591)"
     id="layer1"
     inkscape:groupmode="layer"
     inkscape:label="Layer 1" />
  <g
     transform="translate(0,1927.5591)"
     id="g4357"
     inkscape:groupmode="layer"
     inkscape:label="newlayer">
    <path
       inkscape:label="part"
       style="opacity:1;fill:none;stroke:#000000;stroke-width:0.07086614;stroke-miterlimit:4;stroke-dasharray:none"
       d="m 47.01514,-835.57849 h 29.439001 v -10.62992 h 28.523599 v 10.62992 h 39.9804 v -10.62992 h 28.5236 v 10.62992 h 29.4389"
       id="path4449"
       inkscape:connector-curvature="0" />
    <path
       inkscape:label="part"
       style="opacity:1;fill:none;stroke:#000000;stroke-width:0.07086614;stroke-miterlimit:4;stroke-dasharray:none"
       d="m 202.92064,-148.17692 h -29.4389 v 10.62992 h -28.5236 v -10.62992 h -39.9804 V -137.547 H 76.454141 v -10.62992 H 47.01514"
       id="path4453"
       inkscape:connector-curvature="0" />
    <path
       inkscape:label="part"
       style="opacity:1;fill:none;stroke:#000000;stroke-width:0.07086614;stroke-miterlimit:4;stroke-dasharray:none"
       d="m 47.01514,-148.17692 v -17.62795 h -10.6299 v -28.52362 h 10.6299 v -28.16929 h -10.6299 v -28.52363 h 10.6299 v -28.16929 h -10.6299 v -28.52362 h 10.6299 v -28.16929 h -10.6299 v -28.52362 h 10.6299 v -28.16929 h -10.6299 v -28.52363 h 10.6299 v -28.16929 h -10.6299 v -28.52362 h 10.6299 v -28.16929 h -10.6299 v -28.52362 h 10.6299 v -28.16929 h -10.6299 v -28.52363 h 10.6299 v -28.16929 h -10.6299 v -28.52362 h 10.6299 v -28.16929 h -10.6299 v -28.52362 h 10.6299 V -732.734 h -10.6299 v -28.52363 h 10.6299 v -28.16929 h -10.6299 v -28.52362 h 10.6299 v -17.62795"
       id="path4455"
       inkscape:connector-curvature="0" />
    <path
       inkscape:label="part"
       style="opacity:1;fill:none;stroke:#000000;stroke-width:0.07086614;stroke-miterlimit:4;stroke-dasharray:none"
       d="m 203.29354,-835.32984 v 17.62795 h 10.63 v 28.52362 h -10.63 v 28.16929 h 10.63 v 28.52363 h -10.63 v 28.16929 h 10.63 v 28.52362 h -10.63 v 28.16929 h 10.63 v 28.52362 h -10.63 v 28.16929 h 10.63 v 28.52363 h -10.63 v 28.16929 h 10.63 v 28.52362 h -10.63 v 28.16929 h 10.63 v 28.52362 h -10.63 v 28.16929 h 10.63 v 28.52363 h -10.63 v 28.16929 h 10.63 v 28.52362 h -10.63 v 28.16929 h 10.63 v 28.52362 h -10.63 v 28.16929 h 10.63 v 28.52363 h -10.63 v 28.16929 h 10.63 v 28.52362 h -10.63 v 17.62795"
       id="path4451"
       inkscape:connector-curvature="0" />
    <path
       inkscape:label="part"
       style="opacity:1;fill:none;stroke:#000000;stroke-width:0.07086614;stroke-miterlimit:4;stroke-dasharray:none"
       d="m 224.55344,-845.95976 h 28.435 v 10.62992 h 28.1693 v -10.62992 h 28.5236 v 10.62992 h 28.1693 v -10.62992 h 28.5237 v 10.62992 h 28.1692 v -10.62992 h 28.5237 v 10.62992 h 28.1693 v -10.62992 h 28.5236 v 10.62992 h 28.16928 v -10.62992 h 28.52362 v 10.62992 h 28.16929 v -10.62992 h 28.52363 v 10.62992 h 28.16929 v -10.62992 h 28.52362 v 10.62992 h 28.16929 v -10.62992 h 28.52362 v 10.62992 h 28.16929 v -10.62992 h 28.52363 v 10.62992 h 28.16929 v -10.62992 h 28.52362 v 10.62992 h 28.16929 v -10.62992 h 28.52362 v 10.62992 h 28.16929 v -10.62992 h 28.43504"
       id="path4457"
       inkscape:connector-curvature="0" />
    <path
       sodipodi:nodetypes="cc"
       inkscape:label="part"
       style="opacity:1;fill:none;stroke:#000000;stroke-width:0.07086614;stroke-miterlimit:4;stroke-dasharray:none"
       d="m 933.21485,-845.95976 v 708.66141"
       id="path4459"
       inkscape:connector-curvature="0" />
    <path
       inkscape:label="part"
       style="opacity:1;fill:none;stroke:#000000;stroke-width:0.07086614;stroke-miterlimit:4;stroke-dasharray:none"
       d="m 933.21485,-137.29835 h -28.43504 v -10.62992 h -28.16929 v 10.62992 H 848.0869 v -10.62992 h -28.16929 v 10.62992 h -28.52362 v -10.62992 H 763.2247 v 10.62992 h -28.52363 v -10.62992 h -28.16929 v 10.62992 h -28.52362 v -10.62992 h -28.16929 v 10.62992 h -28.52362 v -10.62992 h -28.16929 v 10.62992 h -28.52363 v -10.62992 h -28.16929 v 10.62992 h -28.52362 v -10.62992 h -28.16928 v 10.62992 h -28.5236 v -10.62992 h -28.1693 v 10.62992 h -28.5237 v -10.62992 h -28.1692 v 10.62992 h -28.5237 v -10.62992 h -28.1693 v 10.62992 h -28.5236 v -10.62992 h -28.1693 v 10.62992 h -28.435"
       id="path4461"
       inkscape:connector-curvature="0" />
    <path
       inkscape:label="part"
       style="opacity:1;fill:none;stroke:#000000;stroke-width:0.07086614;stroke-miterlimit:4;stroke-dasharray:none"
       d="m 224.55344,-137.29835 v -28.43504 h 10.6299 v -28.16929 h -10.6299 v -28.52362 h 10.6299 v -28.16929 h -10.6299 v -28.52362 h 10.6299 v -28.16929 h -10.6299 v -28.52363 h 10.6299 v -28.16929 h -10.6299 v -28.52362 h 10.6299 v -28.16929 h -10.6299 v -28.52362 h 10.6299 v -28.16929 h -10.6299 v -28.52363 h 10.6299 v -28.16929 h -10.6299 v -28.52362 h 10.6299 v -28.16929 h -10.6299 v -28.52362 h 10.6299 v -28.16929 h -10.6299 v -28.52363 h 10.6299 v -28.16929 h -10.6299 v -28.52362 h 10.6299 v -28.16929 h -10.6299 v -28.52362 h 10.6299 v -28.16929 h -10.6299 v -28.43504"
       id="path4463"
       inkscape:connector-curvature="0" />
    <path
       sodipodi:nodetypes="ccccccccccccccccccccccccccc"
       inkscape:label="part"
       style="opacity:1;fill:none;stroke:#000000;stroke-width:0.07086614;stroke-miterlimit:4;stroke-dasharray:none"
       d="m 1367.6116,-830.60544 h 28.4351 v 10.62992 h 28.1692 v -10.62992 h 28.5237 v 10.62992 h 28.1693 v -10.62992 h 28.5236 v 10.62992 h 28.1693 v -10.62992 h 28.5236 v 10.62992 h 28.1693 v -10.62992 h 28.5236 v 10.62992 h 28.1693 v -10.62992 h 28.5236 v 10.62992 h 28.1693 v -10.62992 h 28.5236 v 10.62992"
       id="path4473"
       inkscape:connector-curvature="0" />
    <path
       inkscape:label="part"
       style="opacity:1;fill:none;stroke:#000000;stroke-width:0.07086614;stroke-miterlimit:4;stroke-dasharray:none"
       d="m 1736.6467,-830.60544 v 28.43504 h -10.6299 v 28.16929 h 10.6299 v 28.52362 h -10.6299 v 28.16929 h 10.6299 v 28.52362 h -10.6299 v 28.16929 h 10.6299 v 28.52363 h -10.6299 v 28.16929 h 10.6299 v 28.52362 h -10.6299 v 28.16929 h 10.6299 v 28.52362 h -10.6299 v 28.16929 h 10.6299 v 28.52363 h -10.6299 v 28.16929 h 10.6299 v 28.52362 h -10.6299 v 28.16929 h 10.6299 v 28.52362 h -10.6299 v 28.16929 h 10.6299 v 28.52363 h -10.6299 v 28.16929 h 10.6299 v 28.52362 h -10.6299 v 28.16929 h 10.6299 v 28.52362 h -10.6299 v 28.16929 h 10.6299 v 28.43504"
       id="path4475"
       inkscape:connector-curvature="0" />
    <path
       sodipodi:nodetypes="ccccccccccccccccccccccccccc"
       inkscape:label="part"
       style="opacity:1;fill:none;stroke:#000000;stroke-width:0.07086614;stroke-miterlimit:4;stroke-dasharray:none"
       d="m 1736.2041,-132.57395 v 10.62992 h -28.5236 v -10.62992 h -28.1693 v 10.62992 h -28.5236 v -10.62992 h -28.1693 v 10.62992 h -28.5236 v -10.62992 h -28.1693 v 10.62992 h -28.5236 v -10.62992 h -28.1693 v 10.62992 h -28.5236 v -10.62992 h -28.1693 v 10.62992 h -28.5237 v -10.62992 h -28.1692 v 10.62992 h -28.4351"
       id="path4477"
       inkscape:connector-curvature="0" />
    <path
       inkscape:label="part"
       style="opacity:1;fill:none;stroke:#000000;stroke-width:0.07086614;stroke-miterlimit:4;stroke-dasharray:none"
       d="M 1367.6116,-121.94403 V -830.60544"
       id="path4479"
       inkscape:connector-curvature="0"
       sodipodi:nodetypes="cc" />
    <path
       inkscape:label="part"
       style="opacity:1;fill:none;stroke:#000000;stroke-width:0.07086614;stroke-miterlimit:4;stroke-dasharray:none"
       d="m 224.55344,-116.03855 h 28.2579 v -10.62987 h 28.5236 v 10.62987 h 28.1693 v -10.62987 h 28.5236 v 10.62987 h 28.1693 v -10.62987 h 28.5236 v 10.62987 h 28.1693 v -10.62987 h 28.5236 v 10.62987 h 28.1693 v -10.62987 h 28.52365 v 10.62987 h 28.16929 v -10.62987 h 28.52362 v 10.62987 h 28.16929 v -10.62987 h 28.52362 v 10.62987 h 28.16929 v -10.62987 h 28.52363 v 10.62987 h 28.16929 v -10.62987 h 28.52362 v 10.62987 h 28.16929 v -10.62987 h 28.52362 v 10.62987 h 28.16929 v -10.62987 h 28.52363 v 10.62987 h 28.16929 v -10.62987 h 28.52362 v 10.62987 h 28.25787"
       id="path4441"
       inkscape:connector-curvature="0" />
    <path
       sodipodi:nodetypes="ccccccccccccccccccccccccccc"
       inkscape:label="part"
       style="opacity:1;fill:none;stroke:#000000;stroke-width:0.07086614;stroke-miterlimit:4;stroke-dasharray:none"
       d="m 592.97533,42.947 -0.007,-3.07995 h -28.16929 v 10.6299 h -28.52362 v -10.6299 h -28.16929 v 10.6299 h -28.52365 v -10.6299 h -28.1693 v 10.6299 h -28.5236 v -10.6299 h -28.1693 v 10.6299 h -28.5236 v -10.6299 h -28.1693 v 10.6299 h -28.5236 v -10.6299 h -28.1693 v 10.6299 h -28.5236 v -10.6299 h -28.2579"
       id="path4445"
       inkscape:connector-curvature="0" />
    <path
       inkscape:label="part"
       style="opacity:1;fill:none;stroke:#000000;stroke-width:0.07086614;stroke-miterlimit:4;stroke-dasharray:none"
       d="m 224.55344,39.86705 v -29.6162 h 10.6299 v -28.1693 h -10.6299 v -40.3346 h 10.6299 v -28.1693 h -10.6299 v -29.6162"
       id="path4447"
       inkscape:connector-curvature="0" />
    <path
       sodipodi:nodetypes="ccccc"
       inkscape:label="part"
       style="opacity:1;fill:none;stroke:#000000;stroke-width:0.07086614;stroke-miterlimit:4;stroke-dasharray:none"
       d="m 632.69043,24.18244 -4.49239,-9.63396 -25.85125,12.05464 4.49239,9.63396 -13.87076,6.71661"
       id="path4469-1-8-2"
       inkscape:connector-curvature="0" />
    <path
       sodipodi:nodetypes="ccccc"
       inkscape:label="part"
       style="opacity:1;fill:none;stroke:#000000;stroke-width:0.07086614;stroke-miterlimit:4;stroke-dasharray:none"
       d="M 689.05456,-2.1341297 684.56217,-11.76809 658.71092,0.28655027 663.20331,9.9205103 632.63853,24.1731"
       id="path4469-6-0-5-2"
       inkscape:connector-curvature="0" />
    <path
       sodipodi:nodetypes="ccccc"
       inkscape:label="part"
       style="opacity:1;fill:none;stroke:#000000;stroke-width:0.07086614;stroke-miterlimit:4;stroke-dasharray:none"
       d="m 933.1771,-116.02698 -25.70977,11.98866 -4.49239,-9.63396 -25.85116,12.0546 4.49239,9.633958"
       id="path4469-6-0-0-6-4"
       inkscape:connector-curvature="0" />
    <path
       sodipodi:nodetypes="cc"
       inkscape:label="part"
       style="opacity:1;fill:none;stroke:#000000;stroke-width:0.07086614;stroke-miterlimit:4;stroke-dasharray:none"
       d="m 881.60865,-92.000774 -27.21086,12.7235"
       id="path4469-6-0-6-83-6"
       inkscape:connector-curvature="0" />
    <path
       sodipodi:nodetypes="ccccc"
       inkscape:label="part"
       style="opacity:1;fill:none;stroke:#000000;stroke-width:0.07086614;stroke-miterlimit:4;stroke-dasharray:none"
       d="m 745.46464,-28.4641 -4.49239,-9.633961 -25.85125,12.054641 4.49239,9.63396 -30.56477,14.2525903"
       id="path4469-6-0-85-9-1"
       inkscape:connector-curvature="0" />
    <path
       sodipodi:nodetypes="ccccc"
       inkscape:label="part"
       style="opacity:1;fill:none;stroke:#000000;stroke-width:0.07086614;stroke-miterlimit:4;stroke-dasharray:none"
       d="m 801.88841,-54.767972 -4.49239,-9.633961 -25.85125,12.054636 4.49239,9.633961 -30.56477,14.252586"
       id="path4469-6-0-07-6-8"
       inkscape:connector-curvature="0" />
    <path
       sodipodi:nodetypes="ccccc"
       inkscape:label="part"
       style="opacity:1;fill:none;stroke:#000000;stroke-width:0.07086614;stroke-miterlimit:4;stroke-dasharray:none"
       d="m 854.40723,-79.267258 -4.49239,-9.633961 -25.85125,12.054637 4.49239,9.633961 -26.68061,12.441374"
       id="path4469-6-0-6-8-3-6"
       inkscape:connector-curvature="0" />
    <path
       inkscape:label="part"
       style="fill:none;stroke:#000000;stroke-width:0.07086614;stroke-miterlimit:4;stroke-dasharray:none;opacity:1"
       d="m 1607.5837,-1787.1581 -28.2579,0 0,10.6299 -28.5236,0 0,-10.6299 -28.1693,0 0,10.6299 -28.5236,0 0,-10.6299 -28.1693,0 0,10.6299 -28.5236,0 0,-10.6299 -28.1693,0 0,10.6299 -28.5236,0 0,-10.6299 -28.1693,0 0,10.6299 -28.5236,0 0,-10.6299 -28.1693,0 0,10.6299 -28.5236,0 0,-10.6299 -28.1693,0 0,10.6299 -28.5237,0 0,-10.6299 -28.1693,0 0,10.6299 -28.5236,0 0,-10.6299 -28.1693,0 0,10.6299 -28.5236,0 0,-10.6299 -28.1693,0 0,10.6299 -28.5236,0 0,-10.6299 -28.1693,0 0,10.6299 -28.5236,0 0,-10.6299 -28.1693,0 0,10.6299 -28.5236,0 0,-10.6299 -28.2579,0"
       id="path3972"
       inkscape:connector-curvature="0" />
    <path
       inkscape:label="part"
       style="fill:none;stroke:#000000;stroke-width:0.07086614;stroke-miterlimit:4;stroke-dasharray:none;opacity:1"
       d="m 898.9223,-1787.1581 0,-37.2933 10.6299,0 0,-28.1693 -10.6299,0 0,-37.2933"
       id="path3974"
       inkscape:connector-curvature="0" />
    <path
       inkscape:label="part"
       style="fill:none;stroke:#000000;stroke-width:0.07086614;stroke-miterlimit:4;stroke-dasharray:none;opacity:1"
       d="m 898.9223,-1889.914 28.2579,0 0,-10.63 28.5236,0 0,10.63 28.1693,0 0,-10.63 28.5236,0 0,10.63 28.1693,0 0,-10.63 28.5236,0 0,10.63 28.1693,0 0,-10.63 28.5236,0 0,10.63 28.1693,0 0,-10.63 28.5236,0 0,10.63 28.1693,0 0,-10.63 28.5237,0 0,10.63 28.1693,0 0,-10.63 28.5236,0 0,10.63 28.1693,0 0,-10.63 28.5236,0 0,10.63 28.1693,0 0,-10.63 28.5236,0 0,10.63 28.1693,0 0,-10.63 28.5236,0 0,10.63 28.1693,0 0,-10.63 28.5236,0 0,10.63 28.1693,0 0,-10.63 28.5236,0 0,10.63 28.2579,0"
       id="path3976"
       inkscape:connector-curvature="0" />
    <path
       inkscape:label="part"
       style="fill:none;stroke:#000000;stroke-width:0.07086614;stroke-miterlimit:4;stroke-dasharray:none;opacity:1"
       d="m 1607.5837,-1889.914 0,37.2933 -10.6299,0 0,28.1693 10.6299,0 0,37.2933"
       id="path3978"
       inkscape:connector-curvature="0" />
    <path
       inkscape:label="part"
       style="fill:none;stroke:#000000;stroke-width:0.07086614;stroke-miterlimit:4;stroke-dasharray:none;opacity:1"
       d="m 1731.5995,-1067.8667 -37.1162,0 0,10.6299 -28.5236,0 0,-10.6299 -37.1161,0"
       id="path3980"
       inkscape:connector-curvature="0" />
    <path
       inkscape:label="part"
       style="fill:none;stroke:#000000;stroke-width:0.07086614;stroke-miterlimit:4;stroke-dasharray:none;opacity:1"
       d="m 1628.8436,-1067.8667 0,-17.628 -10.63,0 0,-28.5236 10.63,0 0,-28.1694 -10.63,0 0,-28.5236 10.63,0 0,-28.1693 -10.63,0 0,-28.5236 10.63,0 0,-28.1693 -10.63,0 0,-28.5236 10.63,0 0,-28.1693 -10.63,0 0,-28.5236 10.63,0 0,-28.1693 -10.63,0 0,-28.5236 10.63,0 0,-28.1693 -10.63,0 0,-28.5237 10.63,0 0,-28.1692 -10.63,0 0,-28.5237 10.63,0 0,-28.1693 -10.63,0 0,-28.5236 10.63,0 0,-28.1693 -10.63,0 0,-28.5236 10.63,0 0,-28.1693 -10.63,0 0,-28.5236 10.63,0 0,-28.1693 -10.63,0 0,-28.5236 10.63,0 0,-17.628"
       id="path3982"
       inkscape:connector-curvature="0" />
    <path
       inkscape:label="part"
       style="fill:none;stroke:#000000;stroke-width:0.07086614;stroke-miterlimit:4;stroke-dasharray:none;opacity:1"
       d="m 1628.8436,-1755.2684 37.1161,0 0,-10.6299 28.5236,0 0,10.6299 37.1162,0"
       id="path3984"
       inkscape:connector-curvature="0" />
    <path
       inkscape:label="part"
       style="fill:none;stroke:#000000;stroke-width:0.07086614;stroke-miterlimit:4;stroke-dasharray:none;opacity:1"
       d="m 1731.5995,-1755.2684 0,17.628 10.6299,0 0,28.5236 -10.6299,0 0,28.1693 10.6299,0 0,28.5236 -10.6299,0 0,28.1693 10.6299,0 0,28.5236 -10.6299,0 0,28.1693 10.6299,0 0,28.5237 -10.6299,0 0,28.1692 10.6299,0 0,28.5237 -10.6299,0 0,28.1693 10.6299,0 0,28.5236 -10.6299,0 0,28.1693 10.6299,0 0,28.5236 -10.6299,0 0,28.1693 10.6299,0 0,28.5236 -10.6299,0 0,28.1693 10.6299,0 0,28.5236 -10.6299,0 0,28.1693 10.6299,0 0,28.5236 -10.6299,0 0,28.1693 10.6299,0 0,28.5236 -10.6299,0 0,28.1694 10.6299,0 0,28.5236 -10.6299,0 0,17.628"
       id="path3986"
       inkscape:connector-curvature="0" />
    <path
       inkscape:label="part"
       style="fill:none;stroke:#000000;stroke-width:0.07086614;stroke-miterlimit:4;stroke-dasharray:none;opacity:1"
       d="m 1607.5837,-1057.2368 -28.435,0 0,-10.6299 -28.1693,0 0,10.6299 -28.5236,0 0,-10.6299 -28.1693,0 0,10.6299 -28.5237,0 0,-10.6299 -28.1692,0 0,10.6299 -28.5237,0 0,-10.6299 -28.1693,0 0,10.6299 -28.5236,0 0,-10.6299 -28.1693,0 0,10.6299 -28.5236,0 0,-10.6299 -28.1693,0 0,10.6299 -28.5236,0 0,-10.6299 -28.1693,0 0,10.6299 -28.5236,0 0,-10.6299 -28.1693,0 0,10.6299 -28.5236,0 0,-10.6299 -28.1693,0 0,10.6299 -28.5237,0 0,-10.6299 -28.1692,0 0,10.6299 -28.5237,0 0,-10.6299 -28.1693,0 0,10.6299 -28.5236,0 0,-10.6299 -28.1693,0 0,10.6299 -28.435,0"
       id="path3988"
       inkscape:connector-curvature="0" />
    <path
       inkscape:label="part"
       style="fill:none;stroke:#000000;stroke-width:0.07086614;stroke-miterlimit:4;stroke-dasharray:none;opacity:1"
       d="m 898.9223,-1057.2368 0,-28.4351 10.6299,0 0,-28.1693 -10.6299,0 0,-28.5236 10.6299,0 0,-28.1693 -10.6299,0 0,-28.5236 10.6299,0 0,-28.1693 -10.6299,0 0,-28.5237 10.6299,0 0,-28.1692 -10.6299,0 0,-28.5237 10.6299,0 0,-28.1693 -10.6299,0 0,-141.9094 10.6299,0 0,-28.1693 -10.6299,0 0,-28.5236 10.6299,0 0,-28.1693 -10.6299,0 0,-28.5236 10.6299,0 0,-28.1693 -10.6299,0 0,-28.5236 10.6299,0 0,-28.1693 -10.6299,0 0,-28.5237 10.6299,0 0,-28.1693 -10.6299,0 0,-28.435"
       id="path3990"
       inkscape:connector-curvature="0"
       sodipodi:nodetypes="cccccccccccccccccccccccccccccccccccccccccc" />
    <path
       inkscape:label="part"
       style="fill:none;stroke:#000000;stroke-width:0.07086614;stroke-miterlimit:4;stroke-dasharray:none;opacity:1"
       d="m 898.9223,-1765.8983 28.435,0 0,10.6299 28.1693,0 0,-10.6299 28.5236,0 0,10.6299 28.1693,0 0,-10.6299 28.5237,0 0,10.6299 28.1693,0 0,-10.6299 28.5236,0 0,10.6299 28.1693,0 0,-10.6299 28.5236,0 0,10.6299 28.1693,0 0,-10.6299 28.5236,0 0,10.6299 28.1693,0 0,-10.6299 28.5236,0 0,10.6299 28.1693,0 0,-10.6299 28.5236,0 0,10.6299 28.1693,0 0,-10.6299 28.5236,0 0,10.6299 28.1693,0 0,-10.6299 28.5237,0 0,10.6299 28.1692,0 0,-10.6299 28.5237,0 0,10.6299 28.1693,0 0,-10.6299 28.5236,0 0,10.6299 28.1693,0 0,-10.6299 28.435,0"
       id="path3992"
       inkscape:connector-curvature="0" />
    <path
       inkscape:label="part"
       style="fill:none;stroke:#000000;stroke-width:0.07086614;stroke-miterlimit:4;stroke-dasharray:none;opacity:1"
       d="m 1607.5837,-1765.8983 0,28.435 -10.6299,0 0,28.1693 10.6299,0 0,28.5237 -10.6299,0 0,28.1693 10.6299,0 0,28.5236 -10.6299,0 0,28.1693 10.6299,0 0,28.5236 -10.6299,0 0,28.1693 10.6299,0 0,28.5236 -10.6299,0 0,28.1693 10.6299,0 0,28.5236 -10.6299,0 0,28.1693 10.6299,0 0,28.5236 -10.6299,0 0,28.1693 10.6299,0 0,28.5237 -10.6299,0 0,28.1692 10.6299,0 0,28.5237 -10.6299,0 0,28.1693 10.6299,0 0,28.5236 -10.6299,0 0,28.1693 10.6299,0 0,28.5236 -10.6299,0 0,28.1693 10.6299,0 0,28.5236 -10.6299,0 0,28.1693 10.6299,0 0,28.4351"
       id="path3994"
       inkscape:connector-curvature="0" />
    <path
       inkscape:label="part"
       style="fill:none;stroke:#000000;stroke-width:0.07086614;stroke-miterlimit:4;stroke-dasharray:none;opacity:1"
       d="m 877.6625,-1067.8667 -37.1162,0 0,10.6299 -28.5236,0 0,-10.6299 -37.11616,0"
       id="path3996"
       inkscape:connector-curvature="0" />
    <path
       inkscape:label="part"
       style="fill:none;stroke:#000000;stroke-width:0.07086614;stroke-miterlimit:4;stroke-dasharray:none;opacity:1"
       d="m 774.90654,-1067.8667 0,-17.628 -10.62992,0 0,-28.5236 10.62992,0 0,-28.1694 -10.62992,0 0,-28.5236 10.62992,0 0,-28.1693 -10.62992,0 0,-28.5236 10.62992,0 0,-28.1693 -10.62992,0 0,-28.5236 10.62992,0 0,-28.1693 -10.62992,0 0,-28.5236 10.62992,0 0,-28.1693 -10.62992,0 0,-28.5236 10.62992,0 0,-28.1693 -10.62992,0 0,-28.5237 10.62992,0 0,-28.1692 -10.62992,0 0,-28.5237 10.62992,0 0,-28.1693 -10.62992,0 0,-28.5236 10.62992,0 0,-28.1693 -10.62992,0 0,-28.5236 10.62992,0 0,-28.1693 -10.62992,0 0,-28.5236 10.62992,0 0,-28.1693 -10.62992,0 0,-28.5236 10.62992,0 0,-17.628"
       id="path3998"
       inkscape:connector-curvature="0" />
    <path
       inkscape:label="part"
       style="fill:none;stroke:#000000;stroke-width:0.07086614;stroke-miterlimit:4;stroke-dasharray:none;opacity:1"
       d="m 774.90654,-1755.2684 37.11616,0 0,-10.6299 28.5236,0 0,10.6299 37.1162,0"
       id="path4000"
       inkscape:connector-curvature="0" />
    <path
       inkscape:label="part"
       style="fill:none;stroke:#000000;stroke-width:0.07086614;stroke-miterlimit:4;stroke-dasharray:none;opacity:1"
       d="m 877.6625,-1755.2684 0,17.628 10.6299,0 0,28.5236 -10.6299,0 0,28.1693 10.6299,0 0,28.5236 -10.6299,0 0,28.1693 10.6299,0 0,28.5236 -10.6299,0 0,28.1693 10.6299,0 0,28.5237 -10.6299,0 0,28.1692 10.6299,0 0,28.5237 -81.8457,-0.5051 -1.0101,142.0602 82.8558,0 0,28.5236 -10.6299,0 0,28.1693 10.6299,0 0,28.5236 -10.6299,0 0,28.1693 10.6299,0 0,28.5236 -10.6299,0 0,28.1693 10.6299,0 0,28.5236 -10.6299,0 0,28.1694 10.6299,0 0,28.5236 -10.6299,0 0,17.628"
       id="path4002"
       inkscape:connector-curvature="0"
       sodipodi:nodetypes="cccccccccccccccccccccccccccccccccccccccccc" />
    <path
       inkscape:label="part"
       style="fill:none;stroke:#000000;stroke-width:0.07086614;stroke-miterlimit:4;stroke-dasharray:none;opacity:1"
       d="m 753.6467,-1057.2368 -28.435,0 0,-10.6299 -28.1693,0 0,10.6299 -28.5237,0 0,-10.6299 -28.1692,0 0,10.6299 -28.5237,0 0,-10.6299 -28.1693,0 0,10.6299 -28.5236,0 0,-10.6299 -28.1693,0 0,10.6299 -28.5236,0 0,-10.6299 -28.1693,0 0,10.6299 -28.5236,0 0,-10.6299 -28.1693,0 0,10.6299 -28.5236,0 0,-10.6299 -28.1693,0 0,10.6299 -28.5236,0 0,-10.6299 -28.1693,0 0,10.6299 -28.5236,0 0,-10.6299 -28.1693,0 0,10.6299 -28.5237,0 0,-10.6299 -28.1692,0 0,10.6299 -28.5237,0 0,-10.6299 -28.1693,0 0,10.6299 -28.5236,0 0,-10.6299 -28.1693,0 0,10.6299 -28.435,0"
       id="path4004"
       inkscape:connector-curvature="0" />
    <path
       inkscape:label="part"
       style="fill:none;stroke:#000000;stroke-width:0.07086614;stroke-miterlimit:4;stroke-dasharray:none;opacity:1"
       d="m 44.9853,-1057.2368 0,-28.4351 10.6299,0 0,-28.1693 -10.6299,0 0,-28.5236 10.6299,0 0,-28.1693 -10.6299,0 0,-28.5236 10.6299,0 0,-28.1693 -10.6299,0 0,-28.5237 10.6299,0 0,-28.1692 -10.6299,0 0,-28.5237 10.6299,0 0,-28.1693 -10.6299,0 0,-28.5236 10.6299,0 0,-28.1693 -10.6299,0 0,-28.5236 10.6299,0 0,-28.1693 -10.6299,0 0,-28.5236 10.6299,0 0,-28.1693 -10.6299,0 0,-28.5236 10.6299,0 0,-28.1693 -10.6299,0 0,-28.5236 10.6299,0 0,-28.1693 -10.6299,0 0,-28.5236 10.6299,0 0,-28.1693 -10.6299,0 0,-28.5237 10.6299,0 0,-28.1693 -10.6299,0 0,-28.435"
       id="path4006"
       inkscape:connector-curvature="0" />
    <path
       inkscape:label="part"
       style="fill:none;stroke:#000000;stroke-width:0.07086614;stroke-miterlimit:4;stroke-dasharray:none;opacity:1"
       d="m 44.9853,-1765.8983 28.435,0 0,10.6299 28.1693,0 0,-10.6299 28.5236,0 0,10.6299 28.1693,0 0,-10.6299 28.5237,0 0,10.6299 28.1692,0 0,-10.6299 28.5237,0 0,10.6299 28.1693,0 0,-10.6299 28.5236,0 0,10.6299 28.1693,0 0,-10.6299 28.5236,0 0,10.6299 28.1693,0 0,-10.6299 28.5236,0 0,10.6299 28.1693,0 0,-10.6299 28.5236,0 0,10.6299 28.1693,0 0,-10.6299 28.5236,0 0,10.6299 28.1693,0 0,-10.6299 28.5236,0 0,10.6299 28.1693,0 0,-10.6299 28.5237,0 0,10.6299 28.1692,0 0,-10.6299 28.5237,0 0,10.6299 28.1693,0 0,-10.6299 28.435,0"
       id="path4008"
       inkscape:connector-curvature="0" />
    <path
       inkscape:label="part"
       style="fill:none;stroke:#000000;stroke-width:0.07086614;stroke-miterlimit:4;stroke-dasharray:none;opacity:1"
       d="m 753.6467,-1765.8983 0,28.435 -10.6299,0 0,28.1693 10.6299,0 0,28.5237 -10.6299,0 0,28.1693 10.6299,0 0,28.5236 -10.6299,0 0,28.1693 10.6299,0 0,28.5236 -10.6299,0 0,28.1693 10.6299,0 0,28.5236 -10.6299,0 0,28.1693 10.6299,0 0,28.5236 -10.6299,0 0,28.1693 10.6299,0 0,28.5236 -10.6299,0 0,28.1693 10.6299,0 0,28.5237 -10.6299,0 0,28.1692 10.6299,0 0,28.5237 -10.6299,0 0,28.1693 10.6299,0 0,28.5236 -10.6299,0 0,28.1693 10.6299,0 0,28.5236 -10.6299,0 0,28.1693 10.6299,0 0,28.5236 -10.6299,0 0,28.1693 10.6299,0 0,28.4351"
       id="path4010"
       inkscape:connector-curvature="0" />
    <path
       inkscape:label="part"
       style="fill:none;stroke:#000000;stroke-width:0.07086614;stroke-miterlimit:4;stroke-dasharray:none;opacity:1"
       d="m 1607.5837,-933.22108 -28.2579,0 0,10.62992 -28.5236,0 0,-10.62992 -28.1693,0 0,10.62992 -28.5236,0 0,-10.62992 -28.1693,0 0,10.62992 -28.5236,0 0,-10.62992 -28.1693,0 0,10.62992 -28.5236,0 0,-10.62992 -28.1693,0 0,10.62992 -28.5236,0 0,-10.62992 -28.1693,0 0,10.62992 -28.5236,0 0,-10.62992 -28.1693,0 0,10.62992 -28.5237,0 0,-10.62992 -28.1693,0 0,10.62992 -28.5236,0 0,-10.62992 -28.1693,0 0,10.62992 -28.5236,0 0,-10.62992 -28.1693,0 0,10.62992 -28.5236,0 0,-10.62992 -28.1693,0 0,10.62992 -28.5236,0 0,-10.62992 -28.1693,0 0,10.62992 -28.5236,0 0,-10.62992 -28.2579,0"
       id="path4012"
       inkscape:connector-curvature="0" />
    <path
       inkscape:label="part"
       style="fill:none;stroke:#000000;stroke-width:0.07086614;stroke-miterlimit:4;stroke-dasharray:none;opacity:1"
       d="m 898.9223,-933.22108 0,-37.29331 10.6299,0 0,-28.16929 -10.6299,0 0,-37.29332"
       id="path4014"
       inkscape:connector-curvature="0" />
    <path
       inkscape:label="part"
       style="fill:none;stroke:#000000;stroke-width:0.07086614;stroke-miterlimit:4;stroke-dasharray:none;opacity:1"
       d="m 898.9223,-1035.977 28.2579,0 0,-10.6299 28.5236,0 0,10.6299 28.1693,0 0,-10.6299 28.5236,0 0,10.6299 28.1693,0 0,-10.6299 28.5236,0 0,10.6299 28.1693,0 0,-10.6299 28.5236,0 0,10.6299 28.1693,0 0,-10.6299 28.5236,0 0,10.6299 28.1693,0 0,-10.6299 28.5237,0 0,10.6299 28.1693,0 0,-10.6299 28.5236,0 0,10.6299 28.1693,0 0,-10.6299 28.5236,0 0,10.6299 28.1693,0 0,-10.6299 28.5236,0 0,10.6299 28.1693,0 0,-10.6299 28.5236,0 0,10.6299 28.1693,0 0,-10.6299 28.5236,0 0,10.6299 28.1693,0 0,-10.6299 28.5236,0 0,10.6299 28.2579,0"
       id="path4016"
       inkscape:connector-curvature="0" />
    <path
       inkscape:label="part"
       style="fill:none;stroke:#000000;stroke-width:0.07086614;stroke-miterlimit:4;stroke-dasharray:none;opacity:1"
       d="m 1607.5837,-1035.977 0,37.29332 -10.6299,0 0,28.16929 10.6299,0 0,37.29331"
       id="path4018"
       inkscape:connector-curvature="0" />
    <rect
       y="-1651.2094"
       x="1637.6801"
       height="88.58268"
       width="70.866142"
       id="rect4977"
       style="opacity:1;fill:none;fill-opacity:1;stroke:#000000;stroke-width:0.07086614;stroke-linecap:butt;stroke-linejoin:miter;stroke-miterlimit:4;stroke-dasharray:none;stroke-dashoffset:0;stroke-opacity:1" />
    <rect
       y="-1260.6969"
       x="1637.6422"
       height="88.58268"
       width="70.866142"
       id="rect4977-6-5-1"
       style="opacity:1;fill:none;fill-opacity:1;stroke:#000000;stroke-width:0.07086614;stroke-linecap:butt;stroke-linejoin:miter;stroke-miterlimit:4;stroke-dasharray:none;stroke-dashoffset:0;stroke-opacity:1" />
    <rect
       y="-1390.0277"
       x="1637.6423"
       height="88.58268"
       width="70.866142"
       id="rect4977-6-5-1-4"
       style="opacity:1;fill:none;fill-opacity:1;stroke:#000000;stroke-width:0.07086614;stroke-linecap:butt;stroke-linejoin:miter;stroke-miterlimit:4;stroke-dasharray:none;stroke-dashoffset:0;stroke-opacity:1" />
    <rect
       y="-1520.8425"
       x="1637.3896"
       height="88.58268"
       width="70.866142"
       id="rect4977-6-5-1-4-2"
       style="opacity:1;fill:none;fill-opacity:1;stroke:#000000;stroke-width:0.07086614;stroke-linecap:butt;stroke-linejoin:miter;stroke-miterlimit:4;stroke-dasharray:none;stroke-dashoffset:0;stroke-opacity:1" />
    <rect
       y="-1900.5941"
       x="26.147699"
       height="102.75591"
       width="602.36218"
       id="rect5287"
       style="opacity:1;fill:none;fill-opacity:1;stroke:#000000;stroke-width:0.07086614;stroke-linecap:butt;stroke-linejoin:miter;stroke-miterlimit:4;stroke-dasharray:none;stroke-dashoffset:0;stroke-opacity:1" />
    <path
       id="path7603"
       d="m 26.147708,-1900.5943 v 46.063 m 0,10.6299 v 46.063 m 14.0084,-102.7559 v 46.063 m 0,10.6299 v 46.063 m 14.0084,-102.7559 v 46.063 m 0,10.6299 v 46.063 m 14.0084,-102.7559 v 46.063 m 0,10.6299 v 46.063 m 14.0085,-102.7559 v 46.063 m 0,10.6299 v 46.063 m 14.0084,-102.7559 v 46.063 m 0,10.6299 v 46.063 m 14.008402,-102.7559 v 46.063 m 0,10.6299 v 46.063 m 14.0084,-102.7559 v 46.063 m 0,10.6299 v 46.063 m 14.0085,-102.7559 v 46.063 m 0,10.6299 v 46.063 m 14.0084,-102.7559 v 46.063 m 0,10.6299 v 46.063 m 14.0084,-102.7559 v 46.063 m 0,10.6299 v 46.063 m 14.0084,-102.7559 v 46.063 m 0,10.6299 v 46.063 m 14.0084,-102.7559 v 46.063 m 0,10.6299 v 46.063 m 14.0085,-102.7559 v 46.063 m 0,10.6299 v 46.063 m 14.0084,-102.7559 v 46.063 m 0,10.6299 v 46.063 m 14.0084,-102.7559 v 46.063 m 0,10.6299 v 46.063 m 14.0084,-102.7559 v 46.063 m 0,10.6299 v 46.063 m 14.0085,-102.7559 v 46.063 m 0,10.6299 v 46.063 m 14.0084,-102.7559 v 46.063 m 0,10.6299 v 46.063 m 14.0084,-102.7559 v 46.063 m 0,10.6299 v 46.063 m 14.0084,-102.7559 v 46.063 m 0,10.6299 v 46.063 m 14.0085,-102.7559 v 46.063 m 0,10.6299 v 46.063 m 14.0084,-102.7559 v 46.063 m 0,10.6299 v 46.063 m 14.0084,-102.7559 v 46.063 m 0,10.6299 v 46.063 m 14.0084,-102.7559 v 46.063 m 0,10.6299 v 46.063 m 14.0084,-102.7559 v 46.063 m 0,10.6299 v 46.063 m 14.0085,-102.7559 v 46.063 m 0,10.6299 v 46.063 m 14.0084,-102.7559 v 46.063 m 0,10.6299 v 46.063 m 14.0084,-102.7559 v 46.063 m 0,10.6299 v 46.063 m 14.0084,-102.7559 v 46.063 m 0,10.6299 v 46.063 m 14.0085,-102.7559 v 46.063 m 0,10.6299 v 46.063 m 14.0084,-102.7559 v 46.063 m 0,10.6299 v 46.063 m 14.0084,-102.7559 v 46.063 m 0,10.6299 v 46.063 m 14.0084,-102.7559 v 46.063 m 0,10.6299 v 46.063 m 14.0084,-102.7559 v 46.063 m 0,10.6299 v 46.063 m 14.0085,-102.7559 v 46.063 m 0,10.6299 v 46.063 m 14.0084,-102.7559 v 46.063 m 0,10.6299 v 46.063 m 14.0084,-102.7559 v 46.063 m 0,10.6299 v 46.063 m 14.0084,-102.7559 v 46.063 m 0,10.6299 v 46.063 m 14.0085,-102.7559 v 46.063 m 0,10.6299 v 46.063 m 14.0084,-102.7559 v 46.063 m 0,10.6299 v 46.063 m 14.0084,-102.7559 v 46.063 m 0,10.6299 v 46.063 m 14.0084,-102.7559 v 46.063 m 0,10.6299 v 46.063 m 14.0085,-102.7559 v 46.063 m 0,10.6299 v 46.063 m -595.358002,-92.126 v 81.4961 m 14.0084,-81.4961 v 81.4961 m 14.0084,-81.4961 v 81.4961 m 14.0085,-81.4961 v 81.4961 m 14.0084,-81.4961 v 81.4961 m 14.008402,-81.4961 v 81.4961 m 14.0084,-81.4961 v 81.4961 m 14.0084,-81.4961 v 81.4961 m 14.0085,-81.4961 v 81.4961 m 14.0084,-81.4961 v 81.4961 m 14.0084,-81.4961 v 81.4961 m 14.0084,-81.4961 v 81.4961 m 14.0085,-81.4961 v 81.4961 m 14.0084,-81.4961 v 81.4961 m 14.0084,-81.4961 v 81.4961 m 14.0084,-81.4961 v 81.4961 m 14.0084,-81.4961 v 81.4961 m 14.0085,-81.4961 v 81.4961 m 14.0084,-81.4961 v 81.4961 m 14.0084,-81.4961 v 81.4961 m 14.0084,-81.4961 v 81.4961 m 14.0085,-81.4961 v 81.4961 m 14.0084,-81.4961 v 81.4961 m 14.0084,-81.4961 v 81.4961 m 14.0084,-81.4961 v 81.4961 m 14.0085,-81.4961 v 81.4961 m 14.0084,-81.4961 v 81.4961 m 14.0084,-81.4961 v 81.4961 m 14.0084,-81.4961 v 81.4961 m 14.0084,-81.4961 v 81.4961 m 14.0085,-81.4961 v 81.4961 m 14.0084,-81.4961 v 81.4961 m 14.0084,-81.4961 v 81.4961 m 14.0084,-81.4961 v 81.4961 m 14.0085,-81.4961 v 81.4961 m 14.0084,-81.4961 v 81.4961 m 14.0084,-81.4961 v 81.4961 m 14.0084,-81.4961 v 81.4961 m 14.0085,-81.4961 v 81.4961 m 14.0084,-81.4961 v 81.4961 m 14.0084,-81.4961 v 81.4961 m 14.0084,-81.4961 v 81.4961 m 14.0084,-81.4961 v 81.4961"
       style="opacity:1;fill:none;stroke:#000000;stroke-width:0.07086614;stroke-miterlimit:4;stroke-dasharray:none"
       inkscape:connector-curvature="0">
      <desc
         id="desc7605">Hinge cut parameters: actual(requested)
cut length: 23.00 mm (18.00 mm)
gap length: 3.00 mm (3.00 mm)
separation distance: 1.98 mm (2.00 mm)</desc>
    </path>
    <rect
       style="opacity:1;fill:none;fill-opacity:1;stroke:#000000;stroke-width:0.07086614;stroke-linecap:butt;stroke-linejoin:miter;stroke-miterlimit:4;stroke-dasharray:none;stroke-dashoffset:0;stroke-opacity:1"
       id="rect5326"
       width="12.503367"
       height="10.629921"
       x="1486.4497"
       y="-1662.6406" />
    <rect
       style="opacity:1;fill:none;fill-opacity:1;stroke:#000000;stroke-width:0.07086614;stroke-linecap:butt;stroke-linejoin:miter;stroke-miterlimit:4;stroke-dasharray:none;stroke-dashoffset:0;stroke-opacity:1"
       id="rect5326-8"
       width="12.503367"
       height="10.629921"
       x="1516.0583"
       y="-1662.6521" />
    <rect
       style="opacity:1;fill:none;fill-opacity:1;stroke:#000000;stroke-width:0.07086614;stroke-linecap:butt;stroke-linejoin:miter;stroke-miterlimit:4;stroke-dasharray:none;stroke-dashoffset:0;stroke-opacity:1"
       id="rect5326-1"
       width="12.503367"
       height="10.629921"
       x="1545.3528"
       y="-1662.6521" />
    <rect
       style="opacity:1;fill:none;fill-opacity:1;stroke:#000000;stroke-width:0.07086614;stroke-linecap:butt;stroke-linejoin:miter;stroke-miterlimit:4;stroke-dasharray:none;stroke-dashoffset:0;stroke-opacity:1"
       id="rect5326-4"
       width="12.503367"
       height="10.629921"
       x="1487.6171"
       y="-1562.8939" />
    <rect
       style="opacity:1;fill:none;fill-opacity:1;stroke:#000000;stroke-width:0.07086614;stroke-linecap:butt;stroke-linejoin:miter;stroke-miterlimit:4;stroke-dasharray:none;stroke-dashoffset:0;stroke-opacity:1"
       id="rect5326-8-7"
       width="12.503367"
       height="10.629921"
       x="1517.2257"
       y="-1562.9054" />
    <rect
       style="opacity:1;fill:none;fill-opacity:1;stroke:#000000;stroke-width:0.07086614;stroke-linecap:butt;stroke-linejoin:miter;stroke-miterlimit:4;stroke-dasharray:none;stroke-dashoffset:0;stroke-opacity:1"
       id="rect5326-1-8"
       width="12.503367"
       height="10.629921"
       x="1546.5201"
       y="-1562.9054" />
    <rect
       style="opacity:1;fill:none;fill-opacity:1;stroke:#000000;stroke-width:0.07086614;stroke-linecap:butt;stroke-linejoin:miter;stroke-miterlimit:4;stroke-dasharray:none;stroke-dashoffset:0;stroke-opacity:1"
       id="rect5702"
       width="88.58268"
       height="53.149605"
       x="1487.1429"
       y="-1734.0665" />
    <rect
       style="opacity:1;fill:none;fill-opacity:1;stroke:#000000;stroke-width:0.07086614;stroke-linecap:butt;stroke-linejoin:miter;stroke-miterlimit:4;stroke-dasharray:none;stroke-dashoffset:0;stroke-opacity:1"
       id="rect5702-2"
       width="88.58268"
       height="53.149605"
       x="1488.5658"
       y="-1140.6411" />
    <rect
       style="opacity:1;fill:none;fill-opacity:1;stroke:#000000;stroke-width:0.07086614;stroke-linecap:butt;stroke-linejoin:miter;stroke-miterlimit:4;stroke-dasharray:none;stroke-dashoffset:0;stroke-opacity:1"
       id="rect5702-0"
       width="88.58268"
       height="53.149605"
       x="255.62746"
       y="-815.18811" />
    <rect
       style="opacity:1;fill:none;fill-opacity:1;stroke:#000000;stroke-width:0.07086614;stroke-linecap:butt;stroke-linejoin:miter;stroke-miterlimit:4;stroke-dasharray:none;stroke-dashoffset:0;stroke-opacity:1"
       id="rect5702-1"
       width="88.58268"
       height="53.149605"
       x="253.60713"
       y="-218.18799" />
    <path
       sodipodi:nodetypes="cc"
       inkscape:label="part"
       style="opacity:1;fill:none;stroke:#000000;stroke-width:0.07086614;stroke-miterlimit:4;stroke-dasharray:none"
       d="m 1338.6946,-825.33168 v 686.78994"
       id="path4467"
       inkscape:connector-curvature="0" />
    <path
       sodipodi:nodetypes="cc"
       inkscape:label="part"
       style="opacity:1;fill:none;stroke:#000000;stroke-width:0.07086614;stroke-miterlimit:4;stroke-dasharray:none"
       d="M 963.20628,-138.23101 V -825.63258"
       id="path4471"
       inkscape:connector-curvature="0" />
    <path
       sodipodi:nodetypes="ccccc"
       inkscape:label="part"
       style="opacity:1;fill:none;stroke:#000000;stroke-width:0.07086614;stroke-miterlimit:4;stroke-dasharray:none"
       d="m 1294.7803,-138.31741 v 10.6299 l 28.5237,-1e-5 v -10.62989 l 15.4097,-0.22528"
       id="path4469-1-8-2-9"
       inkscape:connector-curvature="0" />
    <path
       sodipodi:nodetypes="ccccc"
       inkscape:label="part"
       style="opacity:1;fill:none;stroke:#000000;stroke-width:0.07086614;stroke-miterlimit:4;stroke-dasharray:none"
       d="m 1232.5752,-138.28701 v 10.6299 l 28.5237,0 v -10.6299 l 33.7245,0"
       id="path4469-6-0-5-2-5"
       inkscape:connector-curvature="0" />
    <path
       sodipodi:nodetypes="ccccc"
       inkscape:label="part"
       style="opacity:1;fill:none;stroke:#000000;stroke-width:0.07086614;stroke-miterlimit:4;stroke-dasharray:none"
       d="m 963.19186,-138.23567 28.36759,-1e-5 v 10.6299 l 28.52355,0 v -10.6299"
       id="path4469-6-0-0-6-4-3"
       inkscape:connector-curvature="0" />
    <path
       sodipodi:nodetypes="cc"
       inkscape:label="part"
       style="opacity:1;fill:none;stroke:#000000;stroke-width:0.07086614;stroke-miterlimit:4;stroke-dasharray:none"
       d="m 1020.0826,-138.21704 30.0386,-0.0316"
       id="path4469-6-0-6-83-6-20"
       inkscape:connector-curvature="0" />
    <path
       sodipodi:nodetypes="ccccc"
       inkscape:label="part"
       style="opacity:1;fill:none;stroke:#000000;stroke-width:0.07086614;stroke-miterlimit:4;stroke-dasharray:none"
       d="m 1170.3227,-138.26388 v 10.6299 l 28.5237,-1e-5 v -10.6299 l 33.7245,0"
       id="path4469-6-0-85-9-1-2"
       inkscape:connector-curvature="0" />
    <path
       sodipodi:nodetypes="ccccc"
       inkscape:label="part"
       style="opacity:1;fill:none;stroke:#000000;stroke-width:0.07086614;stroke-miterlimit:4;stroke-dasharray:none"
       d="m 1108.0689,-138.27019 v 10.6299 l 28.5237,0 v -10.6299 l 33.7245,0"
       id="path4469-6-0-07-6-8-1"
       inkscape:connector-curvature="0" />
    <path
       sodipodi:nodetypes="ccccc"
       inkscape:label="part"
       style="opacity:1;fill:none;stroke:#000000;stroke-width:0.07086614;stroke-miterlimit:4;stroke-dasharray:none"
       d="m 1050.1169,-138.26171 v 10.6299 l 28.5237,0 v -10.6299 l 29.4388,0"
       id="path4469-6-0-6-8-3-6-5"
       inkscape:connector-curvature="0" />
    <path
       sodipodi:nodetypes="ccccc"
       inkscape:label="part"
       style="opacity:1;fill:none;stroke:#000000;stroke-width:0.07086614;stroke-miterlimit:4;stroke-dasharray:none"
       d="m 1294.7847,-825.54247 v -10.6299 l 28.5237,10e-6 v 10.62989 l 15.4097,0.22528"
       id="path4469-1-8-2-9-9"
       inkscape:connector-curvature="0" />
    <path
       sodipodi:nodetypes="ccccc"
       inkscape:label="part"
       style="opacity:1;fill:none;stroke:#000000;stroke-width:0.07086614;stroke-miterlimit:4;stroke-dasharray:none"
       d="m 1232.5796,-825.57287 v -10.6299 h 28.5237 v 10.6299 h 33.7245"
       id="path4469-6-0-5-2-5-4"
       inkscape:connector-curvature="0" />
    <path
       sodipodi:nodetypes="ccccc"
       inkscape:label="part"
       style="opacity:1;fill:none;stroke:#000000;stroke-width:0.07086614;stroke-miterlimit:4;stroke-dasharray:none"
       d="m 963.19626,-825.62421 28.36759,10e-6 v -10.6299 h 28.52355 v 10.6299"
       id="path4469-6-0-0-6-4-3-7"
       inkscape:connector-curvature="0" />
    <path
       sodipodi:nodetypes="cc"
       inkscape:label="part"
       style="opacity:1;fill:none;stroke:#000000;stroke-width:0.07086614;stroke-miterlimit:4;stroke-dasharray:none"
       d="m 1020.087,-825.64284 30.0386,0.0316"
       id="path4469-6-0-6-83-6-20-4"
       inkscape:connector-curvature="0" />
    <path
       sodipodi:nodetypes="ccccc"
       inkscape:label="part"
       style="opacity:1;fill:none;stroke:#000000;stroke-width:0.07086614;stroke-miterlimit:4;stroke-dasharray:none"
       d="m 1170.3271,-825.596 v -10.6299 l 28.5237,10e-6 v 10.6299 h 33.7245"
       id="path4469-6-0-85-9-1-2-9"
       inkscape:connector-curvature="0" />
    <path
       sodipodi:nodetypes="ccccc"
       inkscape:label="part"
       style="opacity:1;fill:none;stroke:#000000;stroke-width:0.07086614;stroke-miterlimit:4;stroke-dasharray:none"
       d="m 1108.0733,-825.58969 v -10.6299 h 28.5237 v 10.6299 h 33.7245"
       id="path4469-6-0-07-6-8-1-7"
       inkscape:connector-curvature="0" />
    <path
       sodipodi:nodetypes="ccccc"
       inkscape:label="part"
       style="opacity:1;fill:none;stroke:#000000;stroke-width:0.07086614;stroke-miterlimit:4;stroke-dasharray:none"
       d="m 1050.1213,-825.59817 v -10.6299 h 28.5237 v 10.6299 h 29.4388"
       id="path4469-6-0-6-8-3-6-5-4"
       inkscape:connector-curvature="0" />
    <path
       inkscape:label="part"
       style="opacity:1;fill:none;stroke:#000000;stroke-width:0.07086614;stroke-miterlimit:4;stroke-dasharray:none"
       d="m 224.98424,-866.37779 h 28.2579 v 10.62987 h 28.5236 v -10.62987 h 28.1693 v 10.62987 h 28.5236 v -10.62987 h 28.1693 v 10.62987 h 28.5236 v -10.62987 h 28.1693 v 10.62987 h 28.5236 v -10.62987 h 28.1693 v 10.62987 h 28.52365 v -10.62987 h 28.16929 v 10.62987 h 28.52362 v -10.62987 h 28.16929 v 10.62987 h 28.52362 v -10.62987 h 28.16929 v 10.62987 h 28.52363 v -10.62987 h 28.16929 v 10.62987 h 28.52362 v -10.62987 h 28.16929 v 10.62987 h 28.52362 v -10.62987 h 28.16929 v 10.62987 h 28.52363 v -10.62987 h 28.16929 v 10.62987 h 28.52362 v -10.62987 h 28.25787"
       id="path4441-3"
       inkscape:connector-curvature="0" />
    <path
       sodipodi:nodetypes="ccccccccccccccccccccccccccc"
       inkscape:label="part"
       style="opacity:1;fill:none;stroke:#000000;stroke-width:0.07086614;stroke-miterlimit:4;stroke-dasharray:none"
       d="m 593.40613,-1025.3633 -0.007,3.0799 h -28.16929 v -10.6299 h -28.52362 v 10.6299 h -28.16929 v -10.6299 h -28.52365 v 10.6299 h -28.1693 v -10.6299 h -28.5236 v 10.6299 h -28.1693 v -10.6299 h -28.5236 v 10.6299 h -28.1693 v -10.6299 h -28.5236 v 10.6299 h -28.1693 v -10.6299 h -28.5236 v 10.6299 h -28.2579"
       id="path4445-4"
       inkscape:connector-curvature="0" />
    <path
       inkscape:label="part"
       style="opacity:1;fill:none;stroke:#000000;stroke-width:0.07086614;stroke-miterlimit:4;stroke-dasharray:none"
       d="m 224.98424,-1022.2834 v 29.61621 h 10.6299 v 28.1693 h -10.6299 v 40.3346 h 10.6299 v 28.1693 h -10.6299 v 29.6162"
       id="path4447-0"
       inkscape:connector-curvature="0" />
    <path
       sodipodi:nodetypes="ccccc"
       inkscape:label="part"
       style="opacity:1;fill:none;stroke:#000000;stroke-width:0.07086614;stroke-miterlimit:4;stroke-dasharray:none"
       d="m 633.12123,-1006.5988 -4.49239,9.63398 -25.85125,-12.05468 4.49239,-9.6339 -13.87076,-6.7166"
       id="path4469-1-8-2-2"
       inkscape:connector-curvature="0" />
    <path
       sodipodi:nodetypes="ccccc"
       inkscape:label="part"
       style="opacity:1;fill:none;stroke:#000000;stroke-width:0.07086614;stroke-miterlimit:4;stroke-dasharray:none"
       d="m 689.48536,-980.28221 -4.49239,9.63396 -25.85125,-12.05464 4.49239,-9.63396 -30.56478,-14.25255"
       id="path4469-6-0-5-2-58"
       inkscape:connector-curvature="0" />
    <path
       sodipodi:nodetypes="ccccc"
       inkscape:label="part"
       style="opacity:1;fill:none;stroke:#000000;stroke-width:0.07086614;stroke-miterlimit:4;stroke-dasharray:none"
       d="m 933.6079,-866.38936 -25.70977,-11.98866 -4.49239,9.63396 -25.85116,-12.0546 4.49239,-9.63396"
       id="path4469-6-0-0-6-4-7"
       inkscape:connector-curvature="0" />
    <path
       sodipodi:nodetypes="cc"
       inkscape:label="part"
       style="opacity:1;fill:none;stroke:#000000;stroke-width:0.07086614;stroke-miterlimit:4;stroke-dasharray:none"
       d="m 882.03945,-890.41557 -27.21086,-12.7235"
       id="path4469-6-0-6-83-6-1"
       inkscape:connector-curvature="0" />
    <path
       sodipodi:nodetypes="ccccc"
       inkscape:label="part"
       style="opacity:1;fill:none;stroke:#000000;stroke-width:0.07086614;stroke-miterlimit:4;stroke-dasharray:none"
       d="m 745.89544,-953.95224 -4.49239,9.63396 -25.85125,-12.05464 4.49239,-9.63396 -30.56477,-14.25259"
       id="path4469-6-0-85-9-1-21"
       inkscape:connector-curvature="0" />
    <path
       sodipodi:nodetypes="ccccc"
       inkscape:label="part"
       style="opacity:1;fill:none;stroke:#000000;stroke-width:0.07086614;stroke-miterlimit:4;stroke-dasharray:none"
       d="m 802.31921,-927.64837 -4.49239,9.63396 -25.85125,-12.05463 4.49239,-9.63396 -30.56477,-14.25259"
       id="path4469-6-0-07-6-8-4"
       inkscape:connector-curvature="0" />
    <path
       sodipodi:nodetypes="ccccc"
       inkscape:label="part"
       style="opacity:1;fill:none;stroke:#000000;stroke-width:0.07086614;stroke-miterlimit:4;stroke-dasharray:none"
       d="m 854.83803,-903.14908 -4.49239,9.63396 -25.85125,-12.05464 4.49239,-9.63396 -26.68061,-12.44137"
       id="path4469-6-0-6-8-3-6-52"
       inkscape:connector-curvature="0" />
  </g>
  <g
     transform="translate(0,1927.5591)"
     inkscape:label="newlayer"
     inkscape:groupmode="layer"
     id="g4513" />
  <g
     id="g3810"
     inkscape:groupmode="layer"
     inkscape:label="newlayer" />
  <g
     inkscape:label="newlayer"
     inkscape:groupmode="layer"
     id="g4022" />
  <g
     id="g4862"
     transform="rotate(90,1426.9669,1347.9741)">
    <rect
       style="opacity:1;fill:none;fill-opacity:1;stroke:#000000;stroke-width:0.07086614;stroke-linecap:butt;stroke-linejoin:miter;stroke-miterlimit:4;stroke-dasharray:none;stroke-dashoffset:0;stroke-opacity:1"
       id="rect5287-3"
       width="602.36218"
       height="102.75591"
       x="120.81039"
       y="898.84869" />
    <path
       inkscape:connector-curvature="0"
       style="opacity:1;fill:none;stroke:#000000;stroke-width:0.07086614;stroke-miterlimit:4;stroke-dasharray:none"
       d="m 120.81034,898.84856 v 46.063 m 0,10.6299 v 46.06304 m 14.0084,-102.75594 v 46.063 m 0,10.6299 v 46.06304 m 14.0085,-102.75594 v 46.063 m 0,10.6299 v 46.06304 m 14.0084,-102.75594 v 46.063 m 0,10.6299 v 46.06304 m 14.0084,-102.75594 v 46.063 m 0,10.6299 v 46.06304 m 14.0084,-102.75594 v 46.063 m 0,10.6299 v 46.06304 m 14.0085,-102.75594 v 46.063 m 0,10.6299 v 46.06304 m 14.0084,-102.75594 v 46.063 m 0,10.6299 v 46.06304 m 14.0084,-102.75594 v 46.063 m 0,10.6299 v 46.06304 m 14.0084,-102.75594 v 46.063 m 0,10.6299 v 46.06304 m 14.0084,-102.75594 v 46.063 m 0,10.6299 v 46.06304 m 14.0085,-102.75594 v 46.063 m 0,10.6299 v 46.06304 m 14.0084,-102.75594 v 46.063 m 0,10.6299 v 46.06304 m 14.0084,-102.75594 v 46.063 m 0,10.6299 v 46.06304 m 14.0084,-102.75594 v 46.063 m 0,10.6299 v 46.06304 m 14.0085,-102.75594 v 46.063 m 0,10.6299 v 46.06304 m 14.0084,-102.75594 v 46.063 m 0,10.6299 v 46.06304 m 14.0084,-102.75594 v 46.063 m 0,10.6299 v 46.06304 m 14.0084,-102.75594 v 46.063 m 0,10.6299 v 46.06304 m 14.0084,-102.75594 v 46.063 m 0,10.6299 v 46.06304 m 14.0085,-102.75594 v 46.063 m 0,10.6299 v 46.06304 m 14.0084,-102.75594 v 46.063 m 0,10.6299 v 46.06304 m 14.0084,-102.75594 v 46.063 m 0,10.6299 v 46.06304 m 14.0084,-102.75594 v 46.063 m 0,10.6299 v 46.06304 m 14.0085,-102.75594 v 46.063 m 0,10.6299 v 46.06304 m 14.0084,-102.75594 v 46.063 m 0,10.6299 v 46.06304 m 14.0084,-102.75594 v 46.063 m 0,10.6299 v 46.06304 m 14.0084,-102.75594 v 46.063 m 0,10.6299 v 46.06304 m 14.0085,-102.75594 v 46.063 m 0,10.6299 v 46.06304 m 14.0084,-102.75594 v 46.063 m 0,10.6299 v 46.06304 m 14.0084,-102.75594 v 46.063 m 0,10.6299 v 46.06304 m 14.0084,-102.75594 v 46.063 m 0,10.6299 v 46.06304 m 14.0084,-102.75594 v 46.063 m 0,10.6299 v 46.06304 m 14.0085,-102.75594 v 46.063 m 0,10.6299 v 46.06304 m 14.0084,-102.75594 v 46.063 m 0,10.6299 v 46.06304 m 14.0084,-102.75594 v 46.063 m 0,10.6299 v 46.06304 m 14.0084,-102.75594 v 46.063 m 0,10.6299 v 46.06304 m 14.0085,-102.75594 v 46.063 m 0,10.6299 v 46.06304 m 14.0084,-102.75594 v 46.063 m 0,10.6299 v 46.06304 m 14.0084,-102.75594 v 46.063 m 0,10.6299 v 46.06304 m 14.0084,-102.75594 v 46.063 m 0,10.6299 v 46.06304 m 14.0084,-102.75594 v 46.063 m 0,10.6299 v 46.06304 m 14.0085,-102.75594 v 46.063 m 0,10.6299 v 46.06304 m 14.0084,-102.75594 v 46.063 m 0,10.6299 v 46.06304 m -595.358,-92.12604 v 81.4961 m 14.0084,-81.4961 v 81.4961 m 14.0085,-81.4961 v 81.4961 m 14.0084,-81.4961 v 81.4961 m 14.0084,-81.4961 v 81.4961 m 14.0084,-81.4961 v 81.4961 m 14.0085,-81.4961 v 81.4961 m 14.0084,-81.4961 v 81.4961 m 14.0084,-81.4961 v 81.4961 m 14.0084,-81.4961 v 81.4961 m 14.0085,-81.4961 v 81.4961 m 14.0084,-81.4961 v 81.4961 m 14.0084,-81.4961 v 81.4961 m 14.0084,-81.4961 v 81.4961 m 14.0084,-81.4961 v 81.4961 m 14.0085,-81.4961 v 81.4961 m 14.0084,-81.4961 v 81.4961 m 14.0084,-81.4961 v 81.4961 m 14.0084,-81.4961 v 81.4961 m 14.0085,-81.4961 v 81.4961 m 14.0084,-81.4961 v 81.4961 m 14.0084,-81.4961 v 81.4961 m 14.0084,-81.4961 v 81.4961 m 14.0084,-81.4961 v 81.4961 m 14.0085,-81.4961 v 81.4961 m 14.0084,-81.4961 v 81.4961 m 14.0084,-81.4961 v 81.4961 m 14.0084,-81.4961 v 81.4961 m 14.0085,-81.4961 v 81.4961 m 14.0084,-81.4961 v 81.4961 m 14.0084,-81.4961 v 81.4961 m 14.0084,-81.4961 v 81.4961 m 14.0085,-81.4961 v 81.4961 m 14.0084,-81.4961 v 81.4961 m 14.0084,-81.4961 v 81.4961 m 14.0084,-81.4961 v 81.4961 m 14.0084,-81.4961 v 81.4961 m 14.0085,-81.4961 v 81.4961 m 14.0084,-81.4961 v 81.4961 m 14.0084,-81.4961 v 81.4961 m 14.0084,-81.4961 v 81.4961 m 14.0085,-81.4961 v 81.4961 m 14.0084,-81.4961 v 81.4961"
       id="path7603-5">
      <desc
         id="desc7605-4">Hinge cut parameters: actual(requested)
cut length: 23.00 mm (18.00 mm)
gap length: 3.00 mm (3.00 mm)
separation distance: 1.98 mm (2.00 mm)</desc>
    </path>
  </g>
  <g
     inkscape:label="newlayer"
     inkscape:groupmode="layer"
     id="g16474" />
  <g
     id="g4388"
     inkscape:groupmode="layer"
     inkscape:label="newlayer" />
  <g
     inkscape:label="newlayer"
     inkscape:groupmode="layer"
     id="g4722" />
  <g
     id="g5058"
     inkscape:groupmode="layer"
     inkscape:label="newlayer" />
  <g
     id="g4904"
     transform="translate(-232.01944,-953.26833)">
    <path
       sodipodi:nodetypes="cc"
       inkscape:connector-curvature="0"
       inkscape:label="part"
       style="opacity:1;fill:none;stroke:#000000;stroke-width:0.07086614;stroke-miterlimit:4;stroke-dasharray:none"
       d="m 894.52194,1038.5095 105.94206,-0.3571"
       id="path5060" />
    <path
       sodipodi:nodetypes="cc"
       inkscape:connector-curvature="0"
       inkscape:label="part"
       style="opacity:1;fill:none;stroke:#000000;stroke-width:0.07086614;stroke-miterlimit:4;stroke-dasharray:none"
       d="m 1000.464,1038.1524 0.3572,27.3594"
       id="path5062" />
    <path
       sodipodi:nodetypes="cccccccccccccc"
       inkscape:connector-curvature="0"
       inkscape:label="part"
       style="opacity:1;fill:none;stroke:#000000;stroke-width:0.07086614;stroke-miterlimit:4;stroke-dasharray:none"
       d="m 1000.8212,1065.5118 h -17.71939 l 0.35714,10.6299 h -12.22441 v -10.6299 h -17.45079 v 10.6299 h -12.22441 v -10.6299 h -17.45078 v 10.6299 h -12.22441 v -10.6299 h -17.36221"
       id="path5064" />
    <path
       sodipodi:nodetypes="cc"
       inkscape:connector-curvature="0"
       inkscape:label="part"
       style="opacity:1;fill:none;stroke:#000000;stroke-width:0.07086614;stroke-miterlimit:4;stroke-dasharray:none"
       d="m 894.52194,1065.5118 v -26.6451"
       id="path5066" />
  </g>
  <g
     id="g4910"
     transform="translate(-171.03145,-206.82874)">
    <path
       sodipodi:nodetypes="cc"
       inkscape:connector-curvature="0"
       inkscape:label="part"
       style="opacity:1;fill:none;stroke:#000000;stroke-width:0.07086614;stroke-miterlimit:4;stroke-dasharray:none"
       d="m 913.40664,1115.9168 105.94206,-0.3571"
       id="path5060-3" />
    <path
       sodipodi:nodetypes="cc"
       inkscape:connector-curvature="0"
       inkscape:label="part"
       style="opacity:1;fill:none;stroke:#000000;stroke-width:0.07086614;stroke-miterlimit:4;stroke-dasharray:none"
       d="m 1019.3487,1115.5597 0.3572,27.3594"
       id="path5062-8" />
    <path
       sodipodi:nodetypes="cccccccccccccc"
       inkscape:connector-curvature="0"
       inkscape:label="part"
       style="opacity:1;fill:none;stroke:#000000;stroke-width:0.07086614;stroke-miterlimit:4;stroke-dasharray:none"
       d="m 1019.7059,1142.9191 h -17.7194 l 0.3572,10.6299 h -12.22446 v -10.6299 h -17.45079 v 10.6299 h -12.22441 v -10.6299 h -17.45078 v 10.6299 h -12.22441 v -10.6299 h -17.36221"
       id="path5064-4" />
    <path
       sodipodi:nodetypes="cc"
       inkscape:connector-curvature="0"
       inkscape:label="part"
       style="opacity:1;fill:none;stroke:#000000;stroke-width:0.07086614;stroke-miterlimit:4;stroke-dasharray:none"
       d="M 913.40664,1142.9191 V 1116.274"
       id="path5066-7" />
  </g>
  <g
     id="g4892"
     transform="translate(-426.91571,-1007.6271)">
    <path
       sodipodi:nodetypes="cc"
       inkscape:connector-curvature="0"
       inkscape:label="part"
       style="opacity:1;fill:none;stroke:#000000;stroke-width:0.07086614;stroke-miterlimit:4;stroke-dasharray:none"
       d="m 1083.8251,1035.3425 105.942,-0.3572"
       id="path5060-9" />
    <path
       sodipodi:nodetypes="cc"
       inkscape:connector-curvature="0"
       inkscape:label="part"
       style="opacity:1;fill:none;stroke:#000000;stroke-width:0.07086614;stroke-miterlimit:4;stroke-dasharray:none"
       d="m 1189.7671,1034.9853 0.3572,27.3594"
       id="path5062-5" />
    <path
       sodipodi:nodetypes="cccccccccccccc"
       inkscape:connector-curvature="0"
       inkscape:label="part"
       style="opacity:1;fill:none;stroke:#000000;stroke-width:0.07086614;stroke-miterlimit:4;stroke-dasharray:none"
       d="m 1190.1243,1062.3447 h -17.7194 l 0.3572,10.6299 h -12.2244 v -10.6299 h -17.4508 v 10.6299 h -12.2244 v -10.6299 h -17.4508 v 10.6299 h -12.2244 v -10.6299 h -17.3622"
       id="path5064-5" />
    <path
       sodipodi:nodetypes="cc"
       inkscape:connector-curvature="0"
       inkscape:label="part"
       style="opacity:1;fill:none;stroke:#000000;stroke-width:0.07086614;stroke-miterlimit:4;stroke-dasharray:none"
       d="m 1083.8251,1062.3447 v -26.6451"
       id="path5066-6" />
  </g>
  <g
     id="g4898"
     transform="translate(-1016.9079,-94.133587)">
    <path
       sodipodi:nodetypes="cc"
       inkscape:connector-curvature="0"
       inkscape:label="part"
       style="opacity:1;fill:none;stroke:#000000;stroke-width:0.07086614;stroke-miterlimit:4;stroke-dasharray:none"
       d="m 1074.4564,1113.5455 105.942,-0.3571"
       id="path5060-97" />
    <path
       sodipodi:nodetypes="cc"
       inkscape:connector-curvature="0"
       inkscape:label="part"
       style="opacity:1;fill:none;stroke:#000000;stroke-width:0.07086614;stroke-miterlimit:4;stroke-dasharray:none"
       d="m 1180.3984,1113.1884 0.3572,27.3594"
       id="path5062-6" />
    <path
       sodipodi:nodetypes="cccccccccccccc"
       inkscape:connector-curvature="0"
       inkscape:label="part"
       style="opacity:1;fill:none;stroke:#000000;stroke-width:0.07086614;stroke-miterlimit:4;stroke-dasharray:none"
       d="m 1180.7556,1140.5478 h -17.7194 l 0.3572,10.6299 h -12.2244 v -10.6299 h -17.4508 v 10.6299 h -12.2244 v -10.6299 h -17.4508 v 10.6299 h -12.2244 v -10.6299 h -17.3622"
       id="path5064-9" />
    <path
       sodipodi:nodetypes="cc"
       inkscape:connector-curvature="0"
       inkscape:label="part"
       style="opacity:1;fill:none;stroke:#000000;stroke-width:0.07086614;stroke-miterlimit:4;stroke-dasharray:none"
       d="m 1074.4564,1140.5478 v -26.6451"
       id="path5066-3" />
  </g>
  <rect
     style="opacity:1;fill:none;fill-opacity:1;stroke:#000000;stroke-width:0.07086614;stroke-linecap:butt;stroke-linejoin:miter;stroke-miterlimit:4;stroke-dasharray:none;stroke-dashoffset:0;stroke-opacity:1"
     id="rect5326-86"
     width="12.503367"
     height="10.629921"
     x="1486.2131"
     y="395.09579" />
  <rect
     style="opacity:1;fill:none;fill-opacity:1;stroke:#000000;stroke-width:0.07086614;stroke-linecap:butt;stroke-linejoin:miter;stroke-miterlimit:4;stroke-dasharray:none;stroke-dashoffset:0;stroke-opacity:1"
     id="rect5326-8-1"
     width="12.503367"
     height="10.629921"
     x="1515.8218"
     y="395.08432" />
  <rect
     style="opacity:1;fill:none;fill-opacity:1;stroke:#000000;stroke-width:0.07086614;stroke-linecap:butt;stroke-linejoin:miter;stroke-miterlimit:4;stroke-dasharray:none;stroke-dashoffset:0;stroke-opacity:1"
     id="rect5326-1-4"
     width="12.503367"
     height="10.629921"
     x="1545.1162"
     y="395.08432" />
  <rect
     style="opacity:1;fill:none;fill-opacity:1;stroke:#000000;stroke-width:0.07086614;stroke-linecap:butt;stroke-linejoin:miter;stroke-miterlimit:4;stroke-dasharray:none;stroke-dashoffset:0;stroke-opacity:1"
     id="rect5326-4-8"
     width="12.503367"
     height="10.629921"
     x="1487.3804"
     y="494.84259" />
  <rect
     style="opacity:1;fill:none;fill-opacity:1;stroke:#000000;stroke-width:0.07086614;stroke-linecap:butt;stroke-linejoin:miter;stroke-miterlimit:4;stroke-dasharray:none;stroke-dashoffset:0;stroke-opacity:1"
     id="rect5326-8-7-0"
     width="12.503367"
     height="10.629921"
     x="1516.989"
     y="494.83112" />
  <rect
     style="opacity:1;fill:none;fill-opacity:1;stroke:#000000;stroke-width:0.07086614;stroke-linecap:butt;stroke-linejoin:miter;stroke-miterlimit:4;stroke-dasharray:none;stroke-dashoffset:0;stroke-opacity:1"
     id="rect5326-1-8-9"
     width="12.503367"
     height="10.629921"
     x="1546.2834"
     y="494.83112" />
  <rect
     style="opacity:1;fill:none;fill-opacity:1;stroke:#000000;stroke-width:0.07086614;stroke-linecap:butt;stroke-linejoin:miter;stroke-miterlimit:4;stroke-dasharray:none;stroke-dashoffset:0;stroke-opacity:1"
     id="rect5326-5"
     width="12.503367"
     height="10.629921"
     x="1486.2131"
     y="525.81" />
  <rect
     style="opacity:1;fill:none;fill-opacity:1;stroke:#000000;stroke-width:0.07086614;stroke-linecap:butt;stroke-linejoin:miter;stroke-miterlimit:4;stroke-dasharray:none;stroke-dashoffset:0;stroke-opacity:1"
     id="rect5326-8-2"
     width="12.503367"
     height="10.629921"
     x="1515.8218"
     y="525.79852" />
  <rect
     style="opacity:1;fill:none;fill-opacity:1;stroke:#000000;stroke-width:0.07086614;stroke-linecap:butt;stroke-linejoin:miter;stroke-miterlimit:4;stroke-dasharray:none;stroke-dashoffset:0;stroke-opacity:1"
     id="rect5326-1-45"
     width="12.503367"
     height="10.629921"
     x="1545.1162"
     y="525.79852" />
  <rect
     style="opacity:1;fill:none;fill-opacity:1;stroke:#000000;stroke-width:0.07086614;stroke-linecap:butt;stroke-linejoin:miter;stroke-miterlimit:4;stroke-dasharray:none;stroke-dashoffset:0;stroke-opacity:1"
     id="rect5326-4-3"
     width="12.503367"
     height="10.629921"
     x="1487.3804"
     y="625.55682" />
  <rect
     style="opacity:1;fill:none;fill-opacity:1;stroke:#000000;stroke-width:0.07086614;stroke-linecap:butt;stroke-linejoin:miter;stroke-miterlimit:4;stroke-dasharray:none;stroke-dashoffset:0;stroke-opacity:1"
     id="rect5326-8-7-2"
     width="12.503367"
     height="10.629921"
     x="1516.989"
     y="625.54535" />
  <rect
     style="opacity:1;fill:none;fill-opacity:1;stroke:#000000;stroke-width:0.07086614;stroke-linecap:butt;stroke-linejoin:miter;stroke-miterlimit:4;stroke-dasharray:none;stroke-dashoffset:0;stroke-opacity:1"
     id="rect5326-1-8-7"
     width="12.503367"
     height="10.629921"
     x="1546.2834"
     y="625.54535" />
  <rect
     style="opacity:1;fill:none;fill-opacity:1;stroke:#000000;stroke-width:0.07086614;stroke-linecap:butt;stroke-linejoin:miter;stroke-miterlimit:4;stroke-dasharray:none;stroke-dashoffset:0;stroke-opacity:1"
     id="rect5326-13"
     width="12.503367"
     height="10.629921"
     x="1487.3905"
     y="655.55231" />
  <rect
     style="opacity:1;fill:none;fill-opacity:1;stroke:#000000;stroke-width:0.07086614;stroke-linecap:butt;stroke-linejoin:miter;stroke-miterlimit:4;stroke-dasharray:none;stroke-dashoffset:0;stroke-opacity:1"
     id="rect5326-8-9"
     width="12.503367"
     height="10.629921"
     x="1516.9991"
     y="655.54083" />
  <rect
     style="opacity:1;fill:none;fill-opacity:1;stroke:#000000;stroke-width:0.07086614;stroke-linecap:butt;stroke-linejoin:miter;stroke-miterlimit:4;stroke-dasharray:none;stroke-dashoffset:0;stroke-opacity:1"
     id="rect5326-1-1"
     width="12.503367"
     height="10.629921"
     x="1546.2936"
     y="655.54083" />
  <rect
     style="opacity:1;fill:none;fill-opacity:1;stroke:#000000;stroke-width:0.07086614;stroke-linecap:butt;stroke-linejoin:miter;stroke-miterlimit:4;stroke-dasharray:none;stroke-dashoffset:0;stroke-opacity:1"
     id="rect5326-4-80"
     width="12.503367"
     height="10.629921"
     x="1488.5579"
     y="755.29907" />
  <rect
     style="opacity:1;fill:none;fill-opacity:1;stroke:#000000;stroke-width:0.07086614;stroke-linecap:butt;stroke-linejoin:miter;stroke-miterlimit:4;stroke-dasharray:none;stroke-dashoffset:0;stroke-opacity:1"
     id="rect5326-8-7-6"
     width="12.503367"
     height="10.629921"
     x="1518.1665"
     y="755.2876" />
  <rect
     style="opacity:1;fill:none;fill-opacity:1;stroke:#000000;stroke-width:0.07086614;stroke-linecap:butt;stroke-linejoin:miter;stroke-miterlimit:4;stroke-dasharray:none;stroke-dashoffset:0;stroke-opacity:1"
     id="rect5326-1-8-3"
     width="12.503367"
     height="10.629921"
     x="1547.4609"
     y="755.2876" />
  <g
     id="g4874"
     transform="translate(135.23417,-938.68425)">
    <path
       sodipodi:nodetypes="cc"
       inkscape:connector-curvature="0"
       inkscape:label="part"
       style="opacity:1;fill:none;stroke:#000000;stroke-width:0.07086614;stroke-miterlimit:4;stroke-dasharray:none"
       d="m 1497.2727,1038.9167 105.942,-0.3571"
       id="path5060-7" />
    <path
       sodipodi:nodetypes="cc"
       inkscape:connector-curvature="0"
       inkscape:label="part"
       style="opacity:1;fill:none;stroke:#000000;stroke-width:0.07086614;stroke-miterlimit:4;stroke-dasharray:none"
       d="m 1603.2147,1038.5596 0.3572,27.3594"
       id="path5062-9" />
    <path
       sodipodi:nodetypes="cccccccccccccc"
       inkscape:connector-curvature="0"
       inkscape:label="part"
       style="opacity:1;fill:none;stroke:#000000;stroke-width:0.07086614;stroke-miterlimit:4;stroke-dasharray:none"
       d="m 1603.5719,1065.919 h -17.7194 l 0.3572,10.6299 h -12.2244 v -10.6299 h -17.4508 v 10.6299 h -12.2244 v -10.6299 h -17.4508 v 10.6299 h -12.2244 v -10.6299 h -17.3622"
       id="path5064-6" />
    <path
       sodipodi:nodetypes="cc"
       inkscape:connector-curvature="0"
       inkscape:label="part"
       style="opacity:1;fill:none;stroke:#000000;stroke-width:0.07086614;stroke-miterlimit:4;stroke-dasharray:none"
       d="m 1497.2727,1065.919 v -26.6451"
       id="path5066-4" />
  </g>
  <g
     id="g4868"
     transform="translate(133.90835,-1059.3343)">
    <path
       sodipodi:nodetypes="cc"
       inkscape:connector-curvature="0"
       inkscape:label="part"
       style="opacity:1;fill:none;stroke:#000000;stroke-width:0.07086614;stroke-miterlimit:4;stroke-dasharray:none"
       d="m 1499.0145,1096.3239 105.942,-0.3571"
       id="path5060-3-0" />
    <path
       sodipodi:nodetypes="cc"
       inkscape:connector-curvature="0"
       inkscape:label="part"
       style="opacity:1;fill:none;stroke:#000000;stroke-width:0.07086614;stroke-miterlimit:4;stroke-dasharray:none"
       d="m 1604.9565,1095.9668 0.3572,27.3594"
       id="path5062-8-3" />
    <path
       sodipodi:nodetypes="cccccccccccccc"
       inkscape:connector-curvature="0"
       inkscape:label="part"
       style="opacity:1;fill:none;stroke:#000000;stroke-width:0.07086614;stroke-miterlimit:4;stroke-dasharray:none"
       d="m 1605.3137,1123.3262 h -17.7194 l 0.3572,10.6299 h -12.2244 v -10.6299 h -17.4508 v 10.6299 h -12.2244 v -10.6299 h -17.4508 v 10.6299 h -12.2244 v -10.6299 h -17.3622"
       id="path5064-4-7" />
    <path
       sodipodi:nodetypes="cc"
       inkscape:connector-curvature="0"
       inkscape:label="part"
       style="opacity:1;fill:none;stroke:#000000;stroke-width:0.07086614;stroke-miterlimit:4;stroke-dasharray:none"
       d="m 1499.0145,1123.3262 v -26.6451"
       id="path5066-7-9" />
  </g>
  <g
     id="g4880"
     transform="translate(-1210.4784,-147.16662)">
    <path
       sodipodi:nodetypes="cc"
       inkscape:connector-curvature="0"
       inkscape:label="part"
       style="opacity:1;fill:none;stroke:#000000;stroke-width:0.07086614;stroke-miterlimit:4;stroke-dasharray:none"
       d="m 1269.4329,1041.464 105.942,-0.3572"
       id="path5060-9-7" />
    <path
       sodipodi:nodetypes="cc"
       inkscape:connector-curvature="0"
       inkscape:label="part"
       style="opacity:1;fill:none;stroke:#000000;stroke-width:0.07086614;stroke-miterlimit:4;stroke-dasharray:none"
       d="m 1375.3749,1041.1068 0.3572,27.3594"
       id="path5062-5-8" />
    <path
       sodipodi:nodetypes="cccccccccccccc"
       inkscape:connector-curvature="0"
       inkscape:label="part"
       style="opacity:1;fill:none;stroke:#000000;stroke-width:0.07086614;stroke-miterlimit:4;stroke-dasharray:none"
       d="m 1375.7321,1068.4662 h -17.7194 l 0.3572,10.6299 h -12.2244 v -10.6299 h -17.4508 v 10.6299 h -12.2244 v -10.6299 h -17.4508 v 10.6299 h -12.2244 v -10.6299 h -17.3622"
       id="path5064-5-5" />
    <path
       sodipodi:nodetypes="cc"
       inkscape:connector-curvature="0"
       inkscape:label="part"
       style="opacity:1;fill:none;stroke:#000000;stroke-width:0.07086614;stroke-miterlimit:4;stroke-dasharray:none"
       d="m 1269.4329,1068.4662 v -26.6451"
       id="path5066-6-5" />
  </g>
  <g
     id="g4886"
     transform="translate(-1206.5009,-152.46987)">
    <path
       sodipodi:nodetypes="cc"
       inkscape:connector-curvature="0"
       inkscape:label="part"
       style="opacity:1;fill:none;stroke:#000000;stroke-width:0.07086614;stroke-miterlimit:4;stroke-dasharray:none"
       d="m 1265.7785,1108.2383 105.942,-0.3571"
       id="path5060-97-7" />
    <path
       sodipodi:nodetypes="cc"
       inkscape:connector-curvature="0"
       inkscape:label="part"
       style="opacity:1;fill:none;stroke:#000000;stroke-width:0.07086614;stroke-miterlimit:4;stroke-dasharray:none"
       d="m 1371.7205,1107.8812 0.3572,27.3594"
       id="path5062-6-7" />
    <path
       sodipodi:nodetypes="cccccccccccccc"
       inkscape:connector-curvature="0"
       inkscape:label="part"
       style="opacity:1;fill:none;stroke:#000000;stroke-width:0.07086614;stroke-miterlimit:4;stroke-dasharray:none"
       d="m 1372.0777,1135.2406 h -17.7194 l 0.3572,10.6299 h -12.2244 v -10.6299 h -17.4508 v 10.6299 h -12.2244 v -10.6299 h -17.4508 v 10.6299 h -12.2244 v -10.6299 h -17.3622"
       id="path5064-9-5" />
    <path
       sodipodi:nodetypes="cc"
       inkscape:connector-curvature="0"
       inkscape:label="part"
       style="opacity:1;fill:none;stroke:#000000;stroke-width:0.07086614;stroke-miterlimit:4;stroke-dasharray:none"
       d="m 1265.7785,1135.2406 v -26.6451"
       id="path5066-3-5" />
  </g>
  <rect
     style="fill:none;stroke:#000000;stroke-width:0.07086614;stroke-miterlimit:4;stroke-dasharray:none"
     id="rect348"
     width="124.01575"
     height="265.74802"
     x="1771.3025"
     y="667.68207" />
  <rect
     style="fill:none;stroke:#000000;stroke-width:0.07086614;stroke-miterlimit:4;stroke-dasharray:none"
     id="rect348-1"
     width="124.01575"
     height="265.74802"
     x="950.38879"
     y="-1893.5699"
     transform="rotate(90)" />
</svg>
